<svg width="315" height="250" fill="none" xmlns="http://www.w3.org/2000/svg"><g clip-path="url(#clip0)"><path opacity=".1" d="M184.737 42.249c-19.932-.692-38.918-7.114-57.045-14.143-18.127-7.028-36.081-14.815-55.535-18.538-12.513-2.395-26.824-2.734-36.904 3.963-9.704 6.456-12.84 17.57-14.524 27.894-1.268 7.766-2.014 15.938 1.463 23.209 2.412 5.048 6.695 9.29 9.655 14.142 10.307 16.823 3.024 37.569-8.146 53.996-5.235 7.708-11.318 15.065-15.358 23.261-4.04 8.197-5.913 17.601-2.378 25.97 3.508 8.301 11.863 14.524 20.911 18.905 18.383 8.9 40.036 11.446 61.165 12.888 46.759 3.194 93.764 1.81 140.645.427 17.351-.513 34.776-1.033 51.843-3.711 9.48-1.488 19.264-3.846 26.147-9.546 8.734-7.234 10.899-19.486 5.047-28.555-9.821-15.216-36.956-18.994-43.829-35.325-3.776-8.987.104-18.997 5.592-27.335C285.263 91.87 305 76.181 306.041 55.742c.715-14.04-8.777-28.097-23.448-34.74-15.377-6.989-36.707-6.103-48.046 5.423-11.684 11.876-32.213 16.433-49.81 15.824z" fill="#CCA9F9"/><path d="M134.104 212.289l-105.41-.513-10.475-24.525 37.036-2.684-6.455-26.889 73.253-9.478-70.145-24.344 6.196-1.469 112.792 18.369-6.211 41.963-8.879 23.062-21.702 6.508z" fill="#FE9CA4"/><path d="M30.31 201.504s6.467-1.033 10.348 3.529c0 0-2.846 2.239-8.968-.86l-1.38-2.669zM29.633 201.403s-4.127 5.069-2.095 10.714c0 0 3.363-1.344 3.73-8.187l-1.636-2.527zM25.925 193.068s2.587-4.738 12.934 1.894c0 0-1.38 3.185-5.95 2.927-4.57-.259-5.777-2.325-6.984-4.821zM25.256 192.727s-5.368-.615-5.888 11.652c0 0 3.403.704 5.82-3.176 2.418-3.88 1.426-6.057.068-8.476zM22.13 182.941s3.018-8.35 13.97-2.411c0 0-2.501 7.662-12.849 5.251l-1.12-2.84zM18.768 170.459s5.69-8.437 15.78-.615c0 0-3.536 7.919-14.918 3.615l-.862-3zM17.56 158.579s6.64-7.751 16.63 0c0 0-6.294 6.8-16.63 1.98v-1.98zM16.525 147.041s6.726-8.092 16.298-.431c0 0-7.588 7.145-16.298 2.324v-1.893zM17.129 136.797s7.083-10.417 16.039-3.358c0 0-7.588 8.953-16.04 5.337v-1.979zM18.768 124.831s7.502-10.33 16.21-2.411c0 0-8.88 8.953-16.21 4.305v-1.894zM21.268 114.135s8.882-9.709 16.63-5.841c0 0-9.254 10.311-17.018 8.417l.388-2.576zM24.373 103.995s10.249-11.892 16.21-7.92c0 0-7.55 9.224-16.937 10.146l.727-2.226zM28.853 92.236s8.971-9.71 15.525-7.299c0 0-7.675 10.072-16.729 10.33l1.204-3.031zM32.91 81.236s9.916-9.297 14.227-7.662c0 0-7.157 10.33-14.659 9.728l.431-2.066zM36.876 71.078S45.413 59.97 50.072 60.83c0 0-5.177 9.903-13.196 11.376v-1.128zM41.181 57.381s7.545-8.513 11.623-8.495c0 0-5.956 11.376-11.934 11.271l.311-2.776zM43.731 48.262l7.29-17.733s.363 16.03-8.217 21.023l.927-3.29zM46.69 28.706s1.208-14.81.432-16.015c0 0 5.21 12.313-.48 22.557l.049-6.542zM21.847 182.744s-7.557-4.676-12.451 6.764c0 0 6.726 4.458 13.341-3.846l-.89-2.918zM18.524 169.982s-9.27-4.221-13.766 7.723c0 0 7.16 4.919 14.61-4.704l-.844-3.019zM17.129 159.289s-6.64-7.751-16.63 0c0 0 6.295 6.801 16.63 1.98v-1.98zM16.298 147.041S9.572 138.949 0 146.61c0 0 7.588 7.145 16.298 2.324v-1.893z" fill="#FE9CA4"/><path d="M17.13 137.092s-4.719-11.668-14.974-6.65c0 0 5.543 10.345 14.554 8.587l.42-1.937zM19.362 124.773s-4.69-11.871-15.09-6.368c0 0 6.368 10.881 14.628 8.2l.462-1.832zM22.269 114.193s-1.848-13.014-10.47-14.179c0 0 1.828 13.724 9.309 16.525l1.16-2.346zM24.591 104.02s-.72-15.68-7.85-16.227c0 0 .24 11.901 7.046 18.447l.804-2.22zM29.592 91.796s-2.125-13.038-8.93-14.631c0 0 .843 12.627 8.256 17.832l.674-3.2zM33.716 81.343s-.07-13.583-4.228-15.578c0 0-2.578 12.298 3.024 17.312l1.204-1.734zM37.193 70.924s-.582-13.986-4.887-15.956c0 0-1.472 11.068 4.243 16.872l.644-.916zM41.782 58.497s-.025-11.375-3.098-14.044c0 0-3.055 12.46 1.493 16.331l1.605-2.287z" fill="#FE9CA4"/><path d="M43.371 47.703l-2.99-18.933s-4.063 15.514 3.132 22.352l-.142-3.42zM43.953 28.884s-7.675-12.728-7.518-14.142c0 0 .817 13.34 10.471 19.984l-2.953-5.842zM44.852 25.124S37.61 7.047 34.332 5.584c0 0 10.348 5.25 11.124 19.024l-.604.516z" fill="#FE9CA4"/><path d="M40.833 60.265l-.496-.15c6.113-19.901 7.638-32.59 4.296-35.772l.355-.375c3.544 3.358 2.106 15.907-4.155 36.297z" fill="#444053"/><path d="M24 106.861l-.733-.261c.65-1.823 1.349-3.674 2.082-5.497 6.38-15.877 11.813-30.646 15.296-41.985l.638-.307c-3.49 11.36-8.827 26.695-15.214 42.593a121.287 121.287 0 00-2.07 5.457z" fill="#444053"/><path d="M39.423 216.397c-.099-.108-10.006-11.247-16.914-30.262a111.798 111.798 0 01-6.674-34.673c-.474-14.798 2.637-31.32 7.964-46.329l.58.676c-11.962 33.687-7.21 62.553-.906 79.935 6.834 18.844 16.63 29.859 16.726 29.97l-.776.683z" fill="#444053"/><path d="M194.243 192.748s-6.981 8.507-1.438 21.367l-55.742 24.135-5.349 1.119-2.464-10.761 1.648-13.58v-7.421l63.345-14.859z" fill="#D5D6DB"/><path d="M18.22 187.251l77.15-14.041 102.23 16.258-63.496 22.821-115.885-25.038z" fill="#FE9CA4"/><path d="M18.22 187.251l77.15-14.041 102.23 16.258-63.496 22.821-115.885-25.038z" fill="#FE9CA4"/><path d="M18.22 187.248s-7.216 13.647 1.099 26.252l114.409 24.749s-7.101-10.871.367-25.96L18.219 187.248z" fill="#FE9CA4"/><path opacity=".1" d="M18.22 187.248s-7.216 13.647 1.099 26.252l114.409 24.749s-7.101-10.871.367-25.96L18.219 187.248z" fill="#000"/><path opacity=".1" d="M21.628 191.979s-4.123 9.986 0 16.449v-16.449z" fill="#000"/><path d="M133.728 238.249l63.872-27.208s3.573.768 1.263 3.382c-2.31 2.613-63.903 26.44-63.903 26.44L19.319 213.5l114.409 24.749z" fill="#FE9CA4"/><path opacity=".1" d="M133.728 238.249l63.872-27.208s3.573.768 1.263 3.382c-2.31 2.613-63.903 26.44-63.903 26.44L19.319 213.5l114.409 24.749z" fill="#000"/><path opacity=".1" d="M128.493 215.038s-6.16 7.378 0 18.446v-18.446zM158.312 214.913l-27.627 9.201.097.292 27.628-9.201-.098-.292zM163.846 213.997l-33.17 12.592.109.287 33.17-12.591-.109-.288zM168.928 213.953l-38.067 15.555.117.284 38.066-15.554-.116-.285zM174.454 212.621l-43.149 19.458.127.281 43.149-19.459-.127-.28zM179.097 212.627l-47.45 20.705.123.282 47.45-20.705-.123-.282zM189.252 210.906l-56.889 24.529.122.282 56.889-24.529-.122-.282z" fill="#000"/><path opacity=".3" d="M46.882 188.751l54.202-11.375 33.02 6.303-44.415 14.296-42.807-9.224z" fill="#fff"/><path d="M197.6 189.468s2.803 1.128 1.158 2.871c-1.644 1.743-64.663 19.95-64.663 19.95l63.505-22.821z" fill="#FE9CA4"/><path d="M224.821 163.178s-6.978 8.504-1.435 21.367l-55.742 24.135-5.349 1.125-2.464-10.761 1.673-13.576v-7.431l63.317-14.859z" fill="#D5D6DB"/><path d="M48.8 157.678l77.149-14.038 102.232 16.258-63.496 22.821L48.8 157.678z" fill="#CCA9F9"/><path d="M48.788 157.678s-7.219 13.647 1.096 26.253l114.41 24.749s-7.099-10.881.378-25.964L48.788 157.678z" fill="#CCA9F9"/><path opacity=".1" d="M48.788 157.678s-7.219 13.647 1.096 26.253l114.41 24.749s-7.099-10.881.378-25.964l-36.179-7.818-79.705-17.22z" fill="#000"/><path opacity=".1" d="M52.206 162.41s-4.12 9.982 0 16.448V162.41z" fill="#000"/><path d="M164.306 208.68l63.875-27.209s3.57.769 1.26 3.382c-2.31 2.613-63.903 26.44-63.903 26.44L49.897 183.931l114.409 24.749z" fill="#CCA9F9"/><path opacity=".1" d="M164.306 208.68l63.875-27.209s3.57.769 1.26 3.382c-2.31 2.613-63.903 26.44-63.903 26.44L49.897 183.931l114.409 24.749z" fill="#000"/><path opacity=".1" d="M159.07 185.468s-6.159 7.378 0 18.446v-18.446zM188.892 185.346l-27.627 9.202.098.291 27.627-9.201-.098-.292zM194.43 184.429l-33.17 12.592.11.287 33.169-12.591-.109-.288zM199.507 184.381l-38.066 15.555.117.284 38.066-15.555-.117-.284zM205.037 183.05l-43.148 19.458.126.28 43.149-19.458-.127-.28zM209.676 183.052l-47.45 20.705.123.282 47.45-20.705-.123-.282zM219.833 181.33l-56.889 24.53.122.282 56.889-24.53-.122-.282z" fill="#000"/><path opacity=".45" d="M77.463 159.182l54.202-11.376 33.02 6.303-44.415 14.296-42.807-9.223z" fill="#fff"/><path d="M228.181 159.898s2.8 1.128 1.158 2.868c-1.641 1.74-64.654 19.95-64.654 19.95l63.496-22.818z" fill="#CCA9F9"/><path d="M227.716 129.35s-6.981 15.271-1.438 28.131l-55.742 17.371-5.337 1.128-2.464-10.76 1.648-13.58v-7.431l63.333-14.859z" fill="#D5D6DB"/><path d="M51.705 123.853l77.151-14.041 102.233 16.258-63.5 22.821-115.884-25.038z" fill="#FE9CA4"/><path d="M51.705 123.85s-7.228 13.647 1.087 26.253L167.2 174.852s-7.102-10.881.376-25.961L51.704 123.85z" fill="#FE9CA4"/><path opacity=".1" d="M51.705 123.85s-7.228 13.647 1.087 26.253L167.2 174.852s-7.102-10.881.376-25.961L51.704 123.85z" fill="#000"/><path opacity=".1" d="M55.114 128.582s-4.124 9.986 0 16.448v-16.448z" fill="#000"/><path d="M167.213 174.852l63.872-20.445s3.573.769 1.263 3.382-63.903 19.676-63.903 19.676L52.804 150.103l114.409 24.749z" fill="#FE9CA4"/><path opacity=".1" d="M167.213 174.852l63.872-20.445s3.573.769 1.263 3.382-63.903 19.676-63.903 19.676L52.804 150.103l114.409 24.749z" fill="#000"/><path opacity=".1" d="M161.978 151.64s-6.16 7.379 0 18.446V151.64zM191.801 151.518l-27.628 9.201.098.292 27.627-9.202-.097-.291zM197.336 150.602l-33.17 12.592.11.287 33.169-12.591-.109-.288zM202.411 150.555l-38.067 15.555.117.285 38.066-15.555-.116-.285zM207.945 149.221l-43.149 19.458.127.281 43.148-19.459-.126-.28zM212.585 149.227l-47.45 20.704.123.282 47.45-20.705-.123-.281zM222.741 147.507l-56.889 24.529.122.283 56.889-24.53-.122-.282z" fill="#000"/><path opacity=".3" d="M80.367 125.354l54.202-11.376 33.02 6.303-44.415 14.296-42.807-9.223z" fill="#fff"/><path d="M231.085 126.07s2.803 1.128 1.158 2.871c-1.644 1.744-64.654 19.95-64.654 19.95l63.496-22.821zM95.599 32.743s-11.703-.704-10.336 7.492c0 0-.274 1.448 1.041 2.106 0 0 .022-.615 1.201-.403.421.072.85.093 1.275.062a2.658 2.658 0 001.556-.64s3.292-1.359 4.573-6.733c0 0 .948-1.171.924-1.472l-1.983.842s.674 1.423.144 2.607c0 0-.064-2.555-.446-2.496-.077 0-1.026.495-1.026.495s1.161 2.48.284 4.282c0 0 .332-3.056-.647-4.104l-1.392.812s1.358 2.56.437 4.651c0 0 .237-3.206-.73-4.455l-1.262.984s1.278 2.524.498 4.258c0 0-.101-3.732-.77-4.015 0 0-1.105.972-1.271 1.371 0 0 .874 1.845.33 2.801 0 0-.33-2.487-.617-2.5 0 0-1.1 1.648-1.213 2.768a5.975 5.975 0 01.945-2.933 3.3 3.3 0 00-1.681.87s.17-1.166 1.955-1.267c0 0 .909-1.251 1.152-1.325 0 0-1.777-.15-2.852.326 0 0 .949-1.098 3.176-.615l1.231-1.015s-2.334-.307-3.326.034c0 0 1.143-.971 3.662-.264l1.358-.809s-1.992-.427-3.178-.273c0 0 1.25-.674 3.576.055l.967-.434s-1.457-.285-1.885-.332c-.428-.046-.45-.163-.45-.163a5.094 5.094 0 012.741.308s2.079-.747 2.039-.876z" fill="#FE9CA4"/><path opacity=".1" d="M260.237 66.432s-11.702-.704-10.335 7.492c0 0-.274 1.449 1.041 2.106 0 0 .022-.614 1.201-.402.421.07.849.09 1.275.061a2.648 2.648 0 001.54-.64s3.295-1.358 4.573-6.732c0 0 .949-1.172.924-1.473l-1.977.843s.674 1.423.145 2.607c0 0-.065-2.555-.444-2.497-.077 0-1.028.495-1.028.495s1.161 2.481.286 4.283c0 0 .333-3.056-.65-4.105l-1.392.812s1.358 2.561.438 4.652c0 0 .237-3.207-.73-4.455l-1.26.984s1.275 2.524.496 4.258c0 0-.102-3.733-.77-4.015 0 0-1.102.971-1.272 1.37 0 0 .875 1.845.333 2.802 0 0-.333-2.488-.616-2.5 0 0-1.1 1.648-1.214 2.767a5.967 5.967 0 01.949-2.933c-.635.12-1.22.422-1.685.87 0 0 .173-1.165 1.956-1.266 0 0 .908-1.252 1.152-1.329 0 0-1.774-.147-2.852.33 0 0 .949-1.098 3.175-.616l1.232-1.014s-2.337-.308-3.326.034c0 0 1.139-.972 3.662-.265l1.355-.808s-1.993-.428-3.178-.274c0 0 1.25-.673 3.575.055l.97-.433s-1.46-.286-1.888-.332c-.428-.046-.449-.163-.449-.163a5.058 5.058 0 012.741.307s2.084-.747 2.047-.876z" fill="#CCA9F9"/><path opacity=".1" d="M115.309 83.378s-5.1-10.554-11.592-5.352c0 0-1.402.467-1.334 1.934 0 0 .539-.28.924.851.144.4.334.782.567 1.138.315.482.779.849 1.321 1.045 0 0 2.793 2.207 8.118.701 0 0 1.487.255 1.731.077l-1.7-1.313s-.924 1.282-2.211 1.396c0 0 2.205-1.3 1.967-1.602-.049-.061-.923-.655-.923-.655s-1.605 2.223-3.607 2.337c0 0 2.834-1.2 3.271-2.567l-1.386-.818s-1.58 2.435-3.856 2.65c0 0 2.92-1.356 3.539-2.807l-1.472-.615s-1.586 2.343-3.483 2.512c0 0 3.215-1.91 3.135-2.632 0 0-1.389-.486-1.82-.44 0 0-1.177 1.658-2.285 1.658 0 0 2.011-1.504 1.887-1.747 0 0-1.977-.153-3.018.308a6.007 6.007 0 013.028-.615 3.318 3.318 0 00-1.583-1.042s1.102-.418 2.06 1.085c0 0 1.54.181 1.722.357 0 0-.737-1.617-1.676-2.322 0 0 1.423.286 2.073 2.46l1.493.59s-.859-2.189-1.65-2.88c0 0 1.404.52 2.017 3.074l1.367.787s-.594-1.946-1.309-2.902c0 0 1.198.762 1.694 3.142l.853.633s-.462-1.41-.616-1.805c-.154-.393-.077-.473-.077-.473.586.73.957 1.608 1.072 2.537 0 0 1.648 1.408 1.759 1.315z" fill="#FE9CA4"/><path opacity=".1" d="M233.5 51.521s-5.097-10.554-11.592-5.352c0 0-1.398.467-1.334 1.933 0 0 .542-.276.924.852.144.402.335.785.57 1.14.314.482.777.848 1.318 1.043 0 0 2.797 2.207 8.118.704 0 0 1.488.252 1.734.074l-1.691-1.316s-.924 1.285-2.208 1.399c0 0 2.202-1.304 1.965-1.605-.049-.062-.924-.655-.924-.655s-1.601 2.223-3.606 2.337c0 0 2.836-1.2 3.273-2.565l-1.407-.811s-1.577 2.432-3.856 2.65c0 0 2.92-1.359 3.542-2.81l-1.475-.615s-1.586 2.346-3.48 2.512c0 0 3.212-1.91 3.132-2.629 0 0-1.386-.489-1.817-.44 0 0-1.177 1.655-2.288 1.655 0 0 2.014-1.504 1.891-1.747 0 0-1.978-.153-3.022.308a6.005 6.005 0 013.028-.615 3.304 3.304 0 00-1.58-1.042s1.102-.418 2.06 1.085c0 0 1.54.184 1.722.36 0 0-.736-1.62-1.679-2.325 0 0 1.423.29 2.073 2.475l1.497.59s-.86-2.191-1.651-2.883c0 0 1.404.52 2.014 3.074l1.37.787s-.597-1.943-1.312-2.902c0 0 1.202.763 1.694 3.142l.853.633s-.459-1.41-.616-1.804c-.157-.394-.077-.47-.077-.47a5.05 5.05 0 011.069 2.536s1.672 1.396 1.768 1.297zM249.788 103.728s-5.097-10.558-11.601-5.356c0 0-1.398.468-1.334 1.934 0 0 .543-.277.924.852.143.401.333.784.567 1.14.314.482.777.848 1.318 1.043 0 0 2.796 2.21 8.121.704 0 0 1.485.255 1.731.073l-1.7-1.312s-.924 1.285-2.211 1.399c0 0 2.202-1.304 1.965-1.605-.05-.062-.924-.655-.924-.655s-1.602 2.223-3.607 2.339c0 0 2.837-1.202 3.274-2.567l-1.389-.817s-1.577 2.434-3.856 2.65c0 0 2.92-1.359 3.542-2.81l-1.475-.615s-1.586 2.343-3.48 2.512c0 0 3.215-1.91 3.135-2.632 0 0-1.389-.489-1.82-.44 0 0-1.177 1.654-2.288 1.654 0 0 2.014-1.503 1.891-1.746 0 0-1.977-.154-3.021.308a6.017 6.017 0 013.03-.615 3.292 3.292 0 00-1.583-1.043s1.102-.42 2.06 1.086c0 0 1.54.181 1.722.356 0 0-.736-1.617-1.676-2.324 0 0 1.423.289 2.073 2.475l1.494.59s-.86-2.192-1.651-2.88c0 0 1.404.516 2.014 3.074l1.371.784s-.598-1.943-1.312-2.902c0 0 1.201.762 1.697 3.145l.853.615s-.462-1.412-.616-1.805c-.154-.394-.077-.47-.077-.47.585.729.955 1.608 1.068 2.536 0 0 1.676 1.417 1.771 1.325z" fill="#CCA9F9"/><path opacity=".1" d="M62.194 241.084c3.91 0 7.08-.354 7.08-.79 0-.436-3.17-.79-7.08-.79s-7.08.354-7.08.79c0 .436 3.17.79 7.08.79zM15.78 227.655c3.91 0 7.08-.354 7.08-.79 0-.436-3.17-.79-7.08-.79s-7.08.354-7.08.79c0 .436 3.17.79 7.08.79zM97.573 250.003c3.91 0 7.08-.354 7.08-.79 0-.436-3.17-.79-7.08-.79s-7.08.354-7.08.79c0 .436 3.17.79 7.08.79zM278.873 230.576c3.91 0 7.08-.354 7.08-.79 0-.437-3.17-.79-7.08-.79-3.911 0-7.081.353-7.081.79 0 .436 3.17.79 7.081.79zM219.956 226.742c3.91 0 7.08-.354 7.08-.79 0-.437-3.17-.79-7.08-.79-3.911 0-7.081.353-7.081.79 0 .436 3.17.79 7.081.79zM181.842 245.441c4.624 0 8.373-.643 8.373-1.436 0-.793-3.749-1.436-8.373-1.436-4.625 0-8.374.643-8.374 1.436 0 .793 3.749 1.436 8.374 1.436z" fill="#FE9CA4"/><path d="M185.577 229.573s-11.659 6.014-5.636 13.097c0 0 .567 1.538 2.205 1.43 0 0-.326-.596.924-1.073a6.054 6.054 0 001.26-.667 2.956 2.956 0 001.127-1.503s2.384-3.186.536-9.079c0 0 .24-1.666.031-1.937l-1.417 1.94s1.463.981 1.632 2.423c0 0-1.54-2.42-1.848-2.153-.067.056-.702 1.061-.702 1.061s2.538 1.719 2.726 3.951c0 0-1.429-3.127-2.972-3.573l-.884 1.574s2.772 1.685 3.08 4.218c0 0-1.611-3.212-3.255-3.861l-.65 1.663s2.673 1.697 2.919 3.806c0 0-2.236-3.526-3.039-3.415 0 0-.505 1.562-.438 2.044 0 0 1.888 1.261 1.922 2.5 0 0-1.743-2.198-2.011-2.054 0 0-.111 2.211.425 3.36 0 0-.924-1.641-.773-3.36a3.69 3.69 0 00-1.118 1.795s-.502-1.214 1.152-2.333c0 0 .157-1.719.348-1.931 0 0-1.789.873-2.55 1.943 0 0 .28-1.595 2.707-2.389l.616-1.684s-2.427 1.027-3.175 1.93c0 0 .539-1.583 3.366-2.342l.837-1.537s-2.155.725-3.209 1.537c0 0 .817-1.362 3.468-1.989l.681-.969s-1.565.557-2.002.756c-.437.2-.524.102-.524.102a5.67 5.67 0 012.806-1.273s1.543-1.903 1.435-2.008z" fill="#CCA9F9"/><path d="M220.183 115.995c-2.014-5.463-13.101-5.977-17.911-4.584-3.418.993-10.625 2.112-14.474 2.675l-.25-.237c.499-.148.511-.51.45-1.048-.036-.71-.026-1.42.031-2.128 2.359.732 4.459-.999 4.459-.999 2.772-1.23 2.026-6.493 2.556-7.932.397-1.076.825-7.416 1.016-10.576h.04l.022-1.06c.028-.459.04-.726.04-.726s.271-7.73.801-9.294c.492-1.44.893-8.689.954-9.839v-.15l-.04-.67c.028-.49.04-1.034.037-1.605 0-2.629-.274-5.94-.308-6.475v-.28c.022-1.122-.12-6.742-4.909-8.866-1.764-.788-3.886-1.725-5.94-2.638-.53-4.566-1.74-9.107-1.636-13.706 0-.692.062-1.384.13-2.072 0 .2-.022.403-.025.615v1.34c.182-5.752 2.359-11.535 2.156-17.164-.019.55-.059 1.103-.111 1.657a17.852 17.852 0 00-.591-5.654c-.185-.649-.435-1.32-.967-1.753a3.987 3.987 0 00-1.688-.667 33.981 33.981 0 00-4.432-.824 6.849 6.849 0 00-.997-1.934c-3.123-4.28-7.749-8.3-13.218-9.223-2.744-.461-5.901-.077-7.767 1.882a5.79 5.79 0 00-.548.553c-1.004 1.196-1.436 2.767-2.464 3.96-.068.08-.145.154-.219.23-2.014 1.8-5.152 2.174-7.391 3.788a8.88 8.88 0 00-1.106.963 18.71 18.71 0 00-2.414 2.93c-1.007 1.414-2.042 2.886-2.362 4.574-.644 3.382 1.663 6.589 2.091 9.992.955 7.616-7.487 14.373-5.888 21.887a10.013 10.013 0 002.716 4.867c-3.292 2.976-6.095 5.863-6.095 5.863v.172h-.52l.052.615h-.052l.286 3.336-.286 4.857V71.105h.018c.096 1.78.475 8.181.924 9.53.53 1.566.798 9.295.798 9.295s.585 10.923 1.121 12.368c.536 1.445-.225 6.693 2.556 7.932a5.852 5.852 0 002.793 1.156c-.142 1.15-.052 1.983.407 2.245.196.115.419.178.646.184a6.962 6.962 0 00-.502.876 13.072 13.072 0 01-3.227-.759c-2.987-1.23-12.901-3.997-15.78-2.051-2.88 1.946-9.809 3.711-6.609 11.545 3.2 7.833 4.69 8.03 4.69 8.03a11.395 11.395 0 012.559 2.567c.961 1.442 9.914 4.741 12.153 4.741.951-.015 1.903.033 2.848.142 0 0-2.43 2.127-2.106 3.363.323 1.236-.739 11.129-.739 11.129s2.463 2.478 3.517-.771l.037.049c.197.267 1.262 1.476 3.267-.049a18.25 18.25 0 012.606-1.648l9.707-1.371a27.265 27.265 0 013.039-.022c1.54.126 3.052-.784 4.004-1.488 2.011.762 4.271 1.596 5.346 1.9 2.181.615 12.202 3.299 14.545 2.46a3.259 3.259 0 001.263-.898l2.236.071-1.047.209s2.039.033 4.81.07l-.117.068 3.477-.031c5.088.046 10.804.062 11.555-.107 1.176-.262 7.29-.077 9.091 0h.502s6.717-1.338 3.945-8.141c-2.131-5.227-8.681-6.746-11.589-7.164.82-.163 1.525-.289 1.993-.363 2.029-.307 5.971-2.152 6.292-2.782.32-.63 3.624-2.46 4.478-3.502.853-1.042 3.289-8.43 1.265-13.893zm-55.634 15.289l-.329.108-.222.073-.425.419a79.58 79.58 0 00-1.081-.714c.668.04 1.355.08 2.057.114z" fill="url(#paint0_linear)"/><path d="M184.185 98.867s4.712 12.298 7.391 11.068c2.68-1.23 1.953-6.456 2.464-7.889.511-1.432 1.078-12.297 1.078-12.297s.259-7.686.77-9.242c.474-1.43.859-8.64.924-9.774v-.15l-.508-8.916-2.877-.717-6.67 2.46-.924 5.267-.36 2.056-.154.876-1.134 27.258z" fill="#BE6F72"/><path opacity=".1" d="M185.738 96.808s4.496 3.674 5.851 3.996c1.355.323 2.186 3.189 2.186 3.189" fill="#000"/><path d="M147.337 99.405s-4.712 12.298-7.391 11.068c-2.679-1.229-1.953-6.456-2.464-7.889-.511-1.432-1.078-12.297-1.078-12.297s-.258-7.686-.77-9.242c-.474-1.43-.859-8.64-.924-9.774v-.15l.512-8.916 2.876-.716 6.671 2.46.924 5.266.36 2.056.154.877 1.13 27.257z" fill="#BE6F72"/><path d="M178.02 33.594h-10.517V49.96h10.517V33.594z" fill="#3E373A"/><path opacity=".1" d="M178.02 33.594h-10.517V49.96h10.517V33.594z" fill="#000"/><path d="M145.489 111.654s-3.594 3.944-2.26 4.661c1.333.716 9.959 14.142 9.959 14.142s28.333 3.483 33.676-1.743c5.344-5.227 5.236-14.564 5.236-14.564s-4.293.923-4.761.422c-.468-.502-3.04-2.918-3.04-2.918s-36.346-2.201-38.81 0z" fill="#4B4B5B"/><path opacity=".02" d="M145.489 111.654s-3.594 3.944-2.26 4.661c1.333.716 9.959 14.142 9.959 14.142s28.333 3.483 33.676-1.743c5.344-5.227 5.236-14.564 5.236-14.564s-4.293.923-4.761.422c-.468-.502-3.04-2.918-3.04-2.918s-36.346-2.201-38.81 0z" fill="#000"/><path d="M196.495 61.796l-9.239 7.379-2.794.203-1.025.073-17.225 1.26-17.862-1.303-2.657-.193-3.388-.246-7.083-6.764s5.013-5.362 9.405-8.98c1.731-1.43 3.366-2.586 4.558-3.041l.203-.07a5.072 5.072 0 001.953-1.36c3.467-3.57 6.673-12.377 6.673-12.377s15.297-7.89 13.449 2.46c-1.848 10.348 6.877 7.79 6.877 7.79l2.876 1.31 1.137.52 2.898 1.324 6.538 2.995c5.131 2.358 4.706 9.02 4.706 9.02z" fill="#BE6F72"/><path opacity=".1" d="M165.495 44.804c7.598 0 13.757-6.15 13.757-13.734 0-7.585-6.159-13.733-13.757-13.733s-13.757 6.148-13.757 13.733c0 7.585 6.159 13.734 13.757 13.734zM196.516 71.579H134.71v-.15l.512-8.917s5.013-5.361 9.405-8.98l38.804-1.537 1.804-1.9 6.538 2.994c5.134 2.355 4.722 9.017 4.722 9.017s.702 7.72.021 9.473z" fill="#000"/><path d="M196.516 71.271H134.71v-.15l.512-8.916s5.013-5.362 9.405-8.98l38.804-1.538 1.804-1.9 6.538 2.995c5.134 2.355 4.722 9.017 4.722 9.017s.702 7.72.021 9.472z" fill="#E7C7CA"/><path opacity=".1" d="M155.588 46.27s9.75 12.402 22.737-.255c12.987-12.657 1.438 28.233 1.438 28.233l-28.025 3.32 3.85-31.298z" fill="#000"/><path d="M155.588 46.885s9.75 12.402 22.737-.255c12.987-12.658 1.438 28.232 1.438 28.232l-28.025 3.32 3.85-31.297z" fill="#E7C7CA"/><path opacity=".1" d="M182.337 49.062l1.032 15.707 1.106 5.227.844 3.996s2.155 30.745 1.539 32.282c-.616 1.537.308 2.767.438 3.585.129.817-.13 2.871-.028 3.793.102.923 0 1.332-2.359 1.003a210.596 210.596 0 01-5.648-.901s-8.315.615-11.189-.409c-2.873-1.024-8.315-1.027-8.315-1.027s-8.213.206-10.88-.101c-2.667-.308-4.108 3.28-5.851 2.253-1.744-1.027 2.051-10.963 3.282-13.835 1.232-2.871-1.641-10.145-1.641-10.145l3.696-20.467.822-4.64V50.8l.203-.07a5.072 5.072 0 001.953-1.36l.923 14.677 28.949 1.027V48.554" fill="#000"/><path d="M182.337 48.447l1.032 15.707 1.106 5.227.844 3.996s2.155 30.745 1.539 32.282c-.616 1.537.308 2.767.438 3.585.129.817-.13 2.871-.028 3.793.102.923 0 1.332-2.359 1.003-2.359-.329-5.648-.901-5.648-.901s-8.315.615-11.189-.409c-2.873-1.024-8.315-1.027-8.315-1.027s-8.213.206-10.88-.101c-2.667-.308-4.108 3.28-5.851 2.253-1.744-1.027 2.051-10.963 3.282-13.835 1.232-2.871-1.641-10.145-1.641-10.145l3.696-20.467.822-4.64V50.185l.203-.07a5.072 5.072 0 001.953-1.36l.923 14.678 28.949 1.026V47.94" fill="#E7C7CA"/><path opacity=".1" d="M185.667 15.667c-.176-.642-.419-1.31-.924-1.74a3.79 3.79 0 00-1.626-.664 32.17 32.17 0 00-4.275-.818 6.833 6.833 0 00-.924-1.915c-3.018-4.255-7.483-8.267-12.737-9.174-2.75-.477-5.938-.05-7.7 2.115-.967 1.19-1.382 2.767-2.359 3.935-1.881 2.27-5.278 2.549-7.649 4.304-1.266.923-2.184 2.26-3.08 3.558-.97 1.405-1.968 2.868-2.276 4.547-.616 3.354 1.605 6.551 2.014 9.936.924 7.573-7.206 14.29-5.67 21.761.897 4.356 4.928 7.425 9.098 8.98 1.469.55 3.147 1.098 3.834 2.506.308.615.36 1.325.65 1.946.973 2.072 4.173 2.152 5.891.643 1.719-1.51 2.261-3.95 2.464-6.23.825-9.948-3.166-19.777-2.701-29.75.139-3.016.989-6.438 3.696-7.803 3.643-1.845 8.025 1.23 12.035.642a23.805 23.805 0 011.152 14.546c-.638 2.653-1.74 5.226-1.82 7.962-.12 4.166 2.131 7.972 4.077 11.655.418.69.697 1.453.822 2.248a5.398 5.398 0 01-.44 2.352c-1.099 2.954-2.996 5.697-3.212 8.842-.063.367.02.744.231 1.051.217.205.497.33.794.357 3.327.569 6.203-2.374 7.826-5.328a24.953 24.953 0 003.086-10.613c.335-6.26-1.913-12.418-1.774-18.683.16-7.124 3.384-14.296 1.497-21.168z" fill="#000"/><path d="M185.974 15.36c-.175-.643-.418-1.31-.923-1.74a3.792 3.792 0 00-1.627-.664 32.142 32.142 0 00-4.274-.818 6.834 6.834 0 00-.924-1.915c-3.018-4.255-7.484-8.268-12.737-9.175-2.751-.476-5.938-.049-7.7 2.116-.967 1.19-1.382 2.767-2.359 3.935-1.881 2.269-5.278 2.549-7.65 4.304-1.265.922-2.183 2.26-3.079 3.557-.97 1.405-1.968 2.869-2.276 4.547-.616 3.354 1.604 6.552 2.014 9.937.924 7.572-7.206 14.29-5.67 21.76.897 4.357 4.928 7.425 9.098 8.981 1.469.55 3.147 1.098 3.834 2.506.308.615.36 1.325.65 1.946.973 2.072 4.173 2.152 5.891.642 1.718-1.51 2.261-3.95 2.464-6.228.825-9.95-3.166-19.778-2.701-29.752.139-3.016.988-6.438 3.696-7.802 3.643-1.845 8.025 1.23 12.035.642a23.805 23.805 0 011.152 14.545c-.638 2.653-1.74 5.227-1.82 7.963-.121 4.166 2.131 7.972 4.077 11.655.418.689.697 1.452.822 2.247.031.807-.12 1.611-.44 2.352-1.1 2.955-2.997 5.697-3.212 8.842-.063.368.02.745.231 1.052.217.205.497.33.794.356 3.326.57 6.203-2.373 7.826-5.328a24.953 24.953 0 003.086-10.612c.335-6.26-1.913-12.418-1.774-18.684.16-7.123 3.384-14.296 1.496-21.167z" fill="#3E373A"/><path d="M179.172 151.486l12.217.391-1.753-9.045-9.359.888-1.105 7.766z" fill="#C3C7D9"/><path d="M217.027 130.048c-.822 1.024-4.004 2.869-4.312 3.484-.308.614-4.105 2.459-6.057 2.767-1.953.307-8.109 1.641-9.239 2.358-.81.516-7.311 2.152-11.583 3.059a33.084 33.084 0 01-3.508.63c-1.847.101-22.068-6.764-22.068-6.764l3.898-3.997.216-.073c1.102-.372 6.196-2.091 9.023-2.909 3.185-.922 6.88-4.713 6.88-4.713s5.439-1.844 6.16-2.05c.72-.206-1.848-7.173-1.848-7.173s11.804-1.636 16.424-3.022c4.619-1.387 15.296-.873 17.246 4.559 1.949 5.433-.398 12.82-1.232 13.844z" fill="#4B4B5B"/><path d="M163.234 147.366s-2.359 2.46-4.721 2.257c-2.362-.203-10.622.615-10.622.615a16.58 16.58 0 00-4.16 2.407c-1.931 1.519-2.957.308-3.148.049l-.034-.049c-1.028 3.231-3.387.769-3.387.769s1.025-9.838.711-11.068c-.314-1.23 2.03-3.342 2.03-3.342l2.771-.704 7.022-1.796 10.061 3.484 3.477 7.378z" fill="#E7C7CA"/><path opacity=".1" d="M142.662 138.3l-2.079 14.395-.033-.05c-1.029 3.232-3.388.769-3.388.769s1.025-9.838.711-11.068c-.314-1.23 2.03-3.342 2.03-3.342l2.759-.704zM157.192 97.355s5.439 1.844 10.163 0h-10.163zM175.759 100.841s2.258 1.125 4.004 0h-4.004zM175.759 103.51s3.798.507 4.518-.517l-4.518.517zM174.527 109.244s7.133-.923 8.904-2.152l-8.904 2.152zM152.763 107.092s4.004 2.253 6.982 2.152l-6.982-2.152zM185.833 141.716a33.084 33.084 0 01-3.508.63c-1.848.101-22.069-6.764-22.069-6.764l3.899-3.996.216-.074c.616.433 1.121.805 1.481 1.088 1.697 1.334 3.335-.409 3.951-.409.616 0 5.953 4.406 5.953 4.406s4.928 1.128 5.75 2.152c.822 1.024 3.696.821 4.207 1.537.154.221.172.766.12 1.43z" fill="#000"/><path d="M147.892 115.085s-4.983.286-7.857-.922c-2.873-1.209-12.42-3.997-15.192-2.039-2.771 1.959-9.445 3.69-6.365 11.48 3.079 7.791 4.518 7.994 4.518 7.994a11.128 11.128 0 012.463 2.551c.924 1.436 9.547 4.714 11.703 4.714 2.156 0 5.953 0 11.29 3.689 5.337 3.689 10.163 4.101 10.163 4.101s6.775 2.767 8.885 3.382c2.109.615 11.749 3.277 14.009 2.46 2.261-.818 3.696-5.946 3.696-5.946s1.025-4.612.511-5.328c-.514-.717-3.388-.514-4.207-1.538-.819-1.023-5.75-2.152-5.75-2.152s-5.324-4.408-5.94-4.408c-.616 0-2.255 1.74-3.951.408a90.267 90.267 0 00-10.628-6.763c-3.899-2.051-7.348-11.683-7.348-11.683z" fill="#4B4B5B"/><path opacity=".1" d="M137.873 118.058a5.89 5.89 0 015.048 1.331c2.464 2.051 10.754 6.168 10.754 6.168M199.473 117.929s-10.985 1.66-13.036 3.913l13.036-3.913z" fill="#000"/><path d="M212.099 151.877h-.483c-1.737-.062-7.622-.246-8.756 0-1.333.307-18.992 0-18.992 0l3.452-.717s-1.281-4.482-.468-4.854c0 0-4.619-3.038-1.136-5.089 3.483-2.05 7.237-1.186 7.237-1.186l8.743-2.958 1.679-.569s9.854.514 12.521 7.278c2.667 6.763-3.797 8.095-3.797 8.095z" fill="#E7C7CA"/><path opacity=".1" d="M212.099 151.877h-.483c2.867-2.362 9.353-9.55-9.92-14.788l1.679-.569s9.855.513 12.522 7.277-3.798 8.08-3.798 8.08z" fill="#000"/><path d="M193.982 143.908a.539.539 0 100-1.078.539.539 0 000 1.078zM190.85 144.796a.539.539 0 100-1.078.539.539 0 000 1.078z" fill="#4B4B5B"/><g opacity=".1" fill="#000"><path opacity=".1" d="M175.59 30.563c.12-3.382-.483-6.75-1.768-9.881-4.003.596-8.389-2.488-12.035-.643-2.698 1.365-3.545 4.787-3.696 7.803a36.595 36.595 0 00-.027 2.389c0-.283 0-.569.027-.852.142-3.016.989-6.438 3.696-7.803 3.646-1.844 8.026 1.23 12.035.643a23.755 23.755 0 011.768 8.344zM144.566 30c.052-.67.039-1.343-.04-2.01-.327-2.706-1.808-5.292-2.076-7.93-.345 3.183 1.684 6.239 2.076 9.467.04.166.04.313.04.473zM160.792 57.59c-.191 2.281-.73 4.72-2.463 6.232-1.734 1.513-4.928 1.43-5.892-.643-.308-.615-.354-1.33-.653-1.946-.683-1.408-2.365-1.955-3.834-2.505-4.173-1.56-8.198-4.612-9.094-8.98a9.314 9.314 0 01-.163-1.2 9.664 9.664 0 00.163 2.736c.896 4.357 4.927 7.422 9.094 8.98 1.469.551 3.151 1.098 3.834 2.506.308.615.361 1.325.653 1.946.97 2.073 4.17 2.153 5.892.643 1.721-1.51 2.257-3.95 2.463-6.232.094-1.2.126-2.405.096-3.61 0 .699-.04 1.387-.096 2.073zM184.58 35.07V36.4c.172-5.718 2.272-11.468 2.066-17.066-.16 5.177-1.949 10.471-2.066 15.735zM177.971 58.202c.075-.365.099-.738.07-1.11a6.14 6.14 0 00-.822-2.247c-1.78-3.382-3.809-6.844-4.05-10.598 0 .16-.021.307-.024.48-.123 4.163 2.128 7.972 4.074 11.655.331.57.584 1.182.752 1.82zM186.35 53.753a24.968 24.968 0 01-3.107 10.613c-1.626 2.954-4.499 5.897-7.828 5.328a1.31 1.31 0 01-.795-.36.777.777 0 01-.145-.24c-.037.24-.067.483-.086.73-.064.365.019.742.231 1.047.216.208.496.335.795.36 3.329.569 6.202-2.373 7.828-5.328a24.968 24.968 0 003.107-10.613c.037-.72.041-1.435.019-2.152-.006.206-.006.41-.019.615z"/></g><path opacity=".1" d="M186.852 146.306s7.795 3.265 12.935-3.96M188.386 152.012s6.366-4.132 14.474-.135M145.776 151.074s2.673-6.02 9.811-1.429" stroke="#000" stroke-miterlimit="10"/><path opacity=".1" d="M137.11 62.051l5.451-4.919s21.135-1.383 22.01 5.79c0 0 7.493-8.505 23.251-6.61l6.668 5.3-18.429 8.073-17.908 6.201-13.19-5.894-7.853-7.94z" fill="#000"/><path d="M137.11 62.359l5.451-4.92s21.135-1.383 22.01 5.79c0 0 7.493-8.504 23.251-6.61l6.668 5.3-18.429 8.073-17.908 6.201-13.19-5.893-7.853-7.941z" fill="#D5D6DB"/><path opacity=".1" d="M134.698 62.973l2.412 28.799 25.561 1.282-1.109-28.676-.021-.482-26.843-.923z" fill="#000"/><path d="M134.698 62.359l2.412 28.798 25.561 1.282-1.109-28.675-.021-.483-26.843-.922z" fill="#FE9CA4"/><path opacity=".1" d="M195.66 62.359l-26.368 3.947v28.928l25.768-3.718.6-29.157z" fill="#000"/><path d="M195.66 61.744l-26.368 3.947v28.927l25.768-3.716.6-29.158z" fill="#FE9CA4"/><path opacity=".3" d="M189.442 68.802l-14.243 1.58.311 4.846 13.923-1.519.009-4.907z" fill="#fff"/><path d="M138.495 106.578l1.451 3.895s2.156 1.845 4.515.923c2.359-.923 4.416-1.381 5.441-2.279 1.026-.897 2.464-5.407 2.464-5.407s1.438-4.92 2.874-6.15c1.435-1.23 5.235-18.172 0-16.515-5.236 1.657-9.239 17.03-9.239 17.03s-.924 1.124-2.258 1.229c-1.333.104-4.003-.206-4.518.922-.514 1.129-2.269 4.098-.73 6.352z" fill="#BE6F72"/><path opacity=".1" d="M169.292 66.303a8.883 8.883 0 01-7.733-1.925l1.112 28.672s2.617 2.829 6.621 2.183v-28.93z" fill="#000"/><path d="M169.292 65.688a8.884 8.884 0 01-7.733-1.924l1.112 28.672s2.617 2.828 6.621 2.183v-28.93z" fill="#FE9CA4"/><path opacity=".1" d="M169.292 65.688a8.884 8.884 0 01-7.733-1.924l1.112 28.672s2.617 2.828 6.621 2.183v-28.93zM169.908 62.457s10.726-3.274 13.523-2.813l-13.523 2.813zM157.909 61.027s-10.396-2.46-12.133-1.761l12.133 1.761zM176.671 62.866s7.172-2.626 9.766-1.378l-9.766 1.378zM173.059 128.729a23.558 23.558 0 013.535-2.192c1.848-.888 5.235-3.194 5.235-3.194M145.776 97.355s-4.5 3.674-5.852 3.996c-1.352.323-2.186 3.189-2.186 3.189" fill="#000"/><path d="M193.015 106.031l-1.435 3.904s-2.156 1.845-4.518.923c-2.362-.923-4.413-1.381-5.442-2.278-1.029-.898-2.464-5.408-2.464-5.408s-1.435-4.92-2.873-6.15c-1.438-1.229-5.236-18.172 0-16.515 5.235 1.657 9.239 17.03 9.239 17.03s.924 1.124 2.257 1.229c1.334.105 4.004-.206 4.518.922.514 1.129 2.258 4.099.718 6.343z" fill="#BE6F72"/><path opacity=".1" d="M190.499 98.849s2.941 1.888 2.928 4.144l-2.928-4.144z" fill="#000"/><path d="M165.544 44.13c7.598 0 13.757-6.148 13.757-13.733 0-7.585-6.159-13.734-13.757-13.734s-13.757 6.149-13.757 13.734 6.159 13.733 13.757 13.733z" fill="#BE6F72"/><path d="M156.906 26.71c1.669-.26 3.132-1.23 4.727-1.786 3.569-1.25 7.517-.393 11.13.735 1.386.434 2.793.922 4.247.922 1.453 0 2.996-.593 3.738-1.844.684-1.15.552-2.644-.024-3.852-.576-1.209-1.54-2.18-2.513-3.096-3.203-3.02-7.176-5.842-11.571-5.534-1.767.126-3.458.756-5.084 1.454a55.945 55.945 0 00-5.968 3c-1.482.858-4.226 2.005-5.079 3.573-1.94 3.532 3.379 6.902 6.397 6.429z" fill="#3E373A"/><path opacity=".1" d="M180.748 23.446c-.742 1.251-2.285 1.844-3.738 1.844-1.454 0-2.861-.47-4.25-.903-3.613-1.129-7.558-1.99-11.13-.735-1.592.556-3.058 1.537-4.727 1.783-2.433.381-6.351-1.734-6.776-4.424-.477 3.108 4.065 5.77 6.776 5.346 1.669-.261 3.135-1.23 4.727-1.783 3.572-1.254 7.517-.394 11.13.735 1.389.433 2.793.922 4.25.904 1.456-.019 2.996-.59 3.738-1.845a3.6 3.6 0 00.432-2.247 3.313 3.313 0 01-.432 1.325z" fill="#000"/><path d="M292.389 190.064s1.826 2.383-.844 5.983c-2.67 3.6-4.869 6.637-3.982 8.882 0 0 4.028-6.684 7.305-6.779 3.277-.096 1.121-4.068-2.479-8.086z" fill="#FE9CA4"/><path opacity=".1" d="M292.389 190.064c.159.23.285.482.373.747 3.196 3.751 4.903 7.253 1.826 7.339-2.864.083-6.298 5.195-7.12 6.484.026.104.058.206.095.307 0 0 4.028-6.684 7.305-6.779 3.277-.095 1.121-4.08-2.479-8.098z" fill="#000"/><path d="M295.777 193.102c0 .839-.096 1.518-.21 1.518-.114 0-.212-.679-.212-1.518 0-.84.117-.443.234-.443s.188-.397.188.443z" fill="#FFD037"/><path d="M296.944 194.104c-.736.4-1.38.642-1.435.541-.056-.101.496-.51 1.232-.922.736-.412.446-.111.502 0 .055.11.44-.022-.299.381z" fill="#FFD037"/><path d="M282.738 190.064s-1.827 2.383.843 5.983c2.671 3.6 4.869 6.637 3.979 8.882 0 0-4.025-6.684-7.305-6.779-3.279-.096-1.108-4.068 2.483-8.086z" fill="#FE9CA4"/><path opacity=".1" d="M282.738 190.064a2.95 2.95 0 00-.373.747c-3.197 3.751-4.903 7.253-1.826 7.339 2.861.083 6.298 5.195 7.12 6.484a2.386 2.386 0 01-.099.307s-4.025-6.684-7.305-6.779c-3.279-.095-1.108-4.08 2.483-8.098z" fill="#000"/><path d="M279.344 193.102c0 .839.092 1.518.209 1.518.117 0 .213-.679.213-1.518 0-.84-.12-.443-.234-.443-.114 0-.188-.397-.188.443z" fill="#FFD037"/><path d="M278.18 194.104c.736.4 1.379.642 1.435.541.055-.101-.496-.51-1.232-.922-.736-.412-.447-.111-.502 0-.056.11-.441-.022.299.381z" fill="#FFD037"/><path opacity=".1" d="M287.563 223.166c10.546 0 19.094-1.309 19.094-2.923 0-1.615-8.548-2.924-19.094-2.924-10.545 0-19.094 1.309-19.094 2.924 0 1.614 8.549 2.923 19.094 2.923z" fill="#FE9CA4"/><path d="M297.391 201.716l-.093.744-.129 1.052-.053.439-.129 1.052-.055.439-.127 1.049-1.462 11.959c-.13 1.067-1.876 1.9-3.986 1.9h-7.591c-2.11 0-3.853-.833-3.985-1.9l-1.463-11.959-.129-1.049-.053-.439-.129-1.052-.055-.439-.127-1.052-.092-.744c-.071-.615.872-1.113 2.066-1.113h15.528c1.192 0 2.137.508 2.064 1.113z" fill="#65617D"/><path d="M297.298 202.46l-.126 1.052h-19.217l-.13-1.052h19.473zM297.116 203.951l-.126 1.052h-18.854l-.129-1.052h19.109zM296.935 205.442l-.13 1.052h-18.487l-.126-1.052h18.743z" fill="#9D9CB5"/></g><defs><linearGradient id="paint0_linear" x1="168.346" y1="154.311" x2="168.346" y2="0" gradientUnits="userSpaceOnUse"><stop stop-color="gray" stop-opacity=".25"/><stop offset=".54" stop-color="gray" stop-opacity=".12"/><stop offset="1" stop-color="gray" stop-opacity=".1"/></linearGradient><clipPath id="clip0"><path fill="#fff" d="M0 0h315v250H0z"/></clipPath></defs></svg>